<svg version="1.1" id="Layer_1" xmlns="http://www.w3.org/2000/svg" xmlns:xlink="http://www.w3.org/1999/xlink" x="0px" y="0px"
	 width="100%" viewBox="0 0 880 387" enable-background="new 0 0 880 387" xml:space="preserve">
<path fill="#010101" opacity="1.000000" stroke="none" 
	d="
M652.000000,388.000000 
	C436.166656,388.000000 220.833328,387.988586 5.500045,388.093475 
	C1.750778,388.095306 0.902314,387.249481 0.905697,383.499908 
	C1.019381,257.500031 1.019381,131.499985 0.905697,5.500085 
	C0.902314,1.750509 1.750868,0.905477 5.500032,0.906790 
	C295.833344,1.008450 586.166687,1.008450 876.499939,0.906790 
	C880.249146,0.905477 881.097717,1.750509 881.094360,5.500085 
	C880.980652,131.499985 880.980591,257.500031 881.094299,383.499908 
	C881.097717,387.249481 880.250000,388.101959 876.499817,388.095520 
	C801.833374,387.967499 727.166687,388.000000 652.000000,388.000000 
z"/>
<path fill="#FEFEFE" opacity="1.000000" stroke="none" 
	d="
M135.000000,204.026871 
	C188.980759,204.026871 242.461700,204.088699 295.941895,203.912781 
	C300.352203,203.898254 301.781982,204.934982 301.287476,209.323685 
	C300.879669,212.943115 301.077759,216.650955 301.249939,220.308182 
	C301.356140,222.564468 300.514526,223.314438 298.388733,223.051895 
	C297.568237,222.950546 296.724731,223.035660 295.891693,223.035660 
	C204.424606,223.035675 112.957443,222.998199 21.490591,223.146637 
	C16.931679,223.154022 15.442286,222.027466 15.920918,217.503937 
	C16.372572,213.235428 14.509251,207.435013 16.682676,204.972260 
	C19.209890,202.108566 25.113401,204.079514 29.537825,204.069748 
	C64.525078,203.992630 99.512573,204.026871 135.000000,204.026871 
z"/>
<path fill="#FFFFFF" opacity="1.000000" stroke="none" 
	d="
M817.000000,201.987656 
	C832.328857,201.987671 847.158936,202.088882 861.985596,201.908493 
	C865.237366,201.868942 866.301941,202.697952 866.067688,205.992584 
	C865.727051,210.783585 867.710632,217.250061 865.291748,219.985794 
	C862.513000,223.128479 855.920898,220.947601 850.999939,220.951019 
	C762.693298,221.012268 674.386597,220.959671 586.080139,221.103226 
	C581.739258,221.110275 580.188049,220.188766 580.711060,215.735321 
	C581.135681,212.119598 580.916382,208.409042 580.753601,204.750732 
	C580.655701,202.550705 581.398254,201.718399 583.573059,201.964951 
	C584.724548,202.095520 585.903076,201.987686 587.069397,201.987686 
	C663.546265,201.987671 740.023132,201.987656 817.000000,201.987656 
z"/>
<path fill="#F6F6F6" opacity="1.000000" stroke="none" 
	d="
M519.546143,289.046082 
	C519.546143,310.182587 519.546143,330.827454 519.546143,351.463043 
	C521.453491,351.707031 521.604980,350.231842 522.138733,349.378937 
	C532.823669,332.305328 543.437561,315.187286 554.128784,298.117615 
	C556.746521,293.938080 558.479797,289.514404 558.690430,284.564911 
	C558.919739,279.175598 557.201111,277.297668 551.826294,277.029266 
	C550.330505,276.954590 548.811279,277.151215 547.334290,276.968597 
	C546.336487,276.845184 544.236023,277.930695 544.815674,275.354889 
	C545.146179,273.886047 544.765808,271.938995 547.407715,271.953217 
	C561.200500,272.027496 574.993774,271.987854 588.701233,271.987854 
	C589.116394,276.177246 587.377625,277.167908 583.756836,277.103485 
	C573.988281,276.929626 572.149353,278.941681 572.145752,288.753052 
	C572.138184,309.232605 572.143494,329.712128 572.143494,350.245697 
	C574.079834,350.470490 574.261963,348.765350 574.870178,347.810883 
	C585.247437,331.527008 595.561890,315.203064 605.876648,298.879456 
	C608.287842,295.063629 610.458069,291.120056 611.200623,286.591278 
	C612.268799,280.076447 609.768372,277.219757 603.297119,276.932220 
	C601.584351,276.856140 598.605347,278.515594 598.252747,275.403198 
	C597.777100,271.204468 601.236755,271.995850 603.777222,271.991882 
	C615.439636,271.973663 627.102478,271.941772 638.763794,272.052063 
	C639.874695,272.062592 642.097229,270.815338 642.070679,273.478058 
	C642.049500,275.604431 641.474609,277.399384 638.577942,277.040436 
	C629.409912,275.904449 624.159729,281.255524 619.730286,288.296021 
	C601.647339,317.038086 583.454407,345.710938 565.301697,374.409119 
	C564.945740,374.971924 564.500183,375.496460 564.245361,376.101562 
	C563.429016,378.039917 561.825073,378.233856 560.093567,377.969360 
	C557.657715,377.597260 558.759338,375.605835 558.755127,374.385101 
	C558.681519,353.059814 558.702148,331.734192 558.702148,310.408661 
	C558.702148,308.623657 558.702087,306.838654 558.702087,304.885406 
	C556.319458,305.368896 555.925842,307.209656 555.096985,308.493469 
	C540.921387,330.451416 526.808167,352.449707 512.681091,374.438995 
	C512.321167,374.999176 511.879456,375.522827 511.613647,376.124359 
	C510.775818,378.020386 509.193329,378.258881 507.460449,377.970459 
	C505.084442,377.574982 506.138367,375.608337 506.134857,374.391144 
	C506.064117,349.900299 506.081879,325.409210 506.081818,300.918152 
	C506.081818,296.086578 506.134155,291.254333 506.069672,286.423615 
	C505.967102,278.744354 504.222809,277.045685 496.599915,277.016998 
	C494.949615,277.010803 493.299255,277.016113 491.524353,277.016113 
	C491.124390,273.380676 492.073029,271.833832 495.944977,271.899200 
	C509.079956,272.120972 522.221008,271.983887 535.321289,271.983887 
	C535.667664,275.929260 534.226624,277.630035 530.508911,277.035156 
	C529.696716,276.905182 528.845886,277.015656 528.012878,277.016205 
	C520.116211,277.021423 519.587708,277.553955 519.546875,285.555481 
	C519.541809,286.555115 519.546204,287.554779 519.546143,289.046082 
z"/>
<path fill="#F7F7F7" opacity="1.000000" stroke="none" 
	d="
M129.061279,280.540833 
	C129.838867,277.373291 128.869049,275.953979 125.940781,276.008667 
	C123.776390,276.049103 121.584808,276.213959 119.455338,275.937866 
	C118.219559,275.777618 115.897850,277.378510 115.855515,274.440521 
	C115.817749,271.819519 117.072800,270.855286 119.867645,270.913086 
	C129.190506,271.105804 138.523697,270.819794 147.845459,271.037323 
	C155.635544,271.219025 163.490555,270.007843 171.213409,271.924286 
	C187.698395,276.015106 193.904282,294.325806 183.363327,307.727661 
	C177.649673,314.992065 169.836929,318.784576 160.373016,321.343292 
	C168.790573,325.784393 173.311325,332.286255 173.508545,341.341431 
	C173.621780,346.541016 172.271286,351.566956 171.241684,356.620697 
	C171.075577,357.436096 170.877228,358.255707 170.825165,359.081635 
	C170.625763,362.243927 168.765625,366.368988 173.237793,367.626343 
	C177.144012,368.724579 180.285767,366.196320 182.164886,362.738312 
	C183.745255,359.830078 185.001297,356.736877 186.268600,353.670898 
	C186.928268,352.074951 187.327728,350.431458 189.655624,351.169098 
	C191.918564,351.886108 191.083115,353.453247 190.626648,354.809021 
	C188.822815,360.166290 187.031250,365.463531 183.240570,369.941132 
	C178.480011,375.564392 172.448669,376.863403 165.689774,375.790710 
	C159.967697,374.882568 156.582718,370.646454 156.136581,364.601929 
	C155.622482,357.636597 157.844162,351.109375 159.380493,344.476379 
	C160.130432,341.238586 161.170212,338.074371 161.178391,334.686310 
	C161.196014,327.383575 157.658920,323.340302 150.481415,323.058960 
	C144.993652,322.843872 139.486145,323.146576 133.996689,322.954224 
	C131.569519,322.869202 130.966141,324.032501 130.431610,326.021820 
	C127.021019,338.714905 123.449409,351.364807 120.049721,364.060730 
	C118.777092,368.813324 119.792931,369.929382 124.875946,369.980774 
	C127.707016,370.009399 130.551895,369.828461 133.363312,370.065308 
	C134.459290,370.157654 136.762085,368.736816 136.576462,371.532166 
	C136.440338,373.581635 135.873978,375.153748 133.005310,375.090576 
	C123.682991,374.885284 114.353325,375.013977 105.026482,375.014038 
	C99.720314,375.014099 94.414154,375.014069 89.209892,375.014069 
	C88.687363,370.852509 90.412010,369.462830 94.046822,369.957367 
	C95.355011,370.135315 96.726044,369.843109 98.036919,370.011108 
	C103.181358,370.670410 105.401176,368.198792 106.683868,363.356293 
	C113.968765,335.854126 121.516182,308.421448 129.061279,280.540833 
z"/>
<path fill="#F6F6F6" opacity="1.000000" stroke="none" 
	d="
M415.795776,105.942856 
	C415.795532,97.790565 415.676941,90.127899 415.859802,82.472435 
	C415.923035,79.825699 414.986847,78.738083 412.531555,77.960136 
	C401.930603,74.601295 391.403809,71.009224 380.829346,67.565376 
	C379.234283,67.045898 377.375336,65.334633 376.669403,69.045135 
	C376.327606,70.841843 373.424377,69.775742 371.715546,69.765312 
	C369.703094,69.753014 370.258759,67.946480 370.184235,66.721481 
	C369.564484,56.532654 369.614502,56.512764 379.056396,59.722454 
	C390.839417,63.728001 402.661957,67.619797 414.407288,71.732338 
	C417.585297,72.845078 420.380707,72.701569 423.526276,71.537102 
	C436.752258,66.640968 450.090546,62.048595 463.324524,57.173428 
	C466.749603,55.911690 468.348999,56.319050 467.997864,60.320805 
	C467.838409,62.138485 468.274475,64.047943 467.893127,65.796410 
	C467.440460,67.871819 470.020996,71.236359 465.066223,71.658882 
	C459.700653,72.116440 461.457245,68.367325 460.860046,65.240211 
	C454.126648,67.620476 447.528900,69.926979 440.950226,72.286606 
	C435.796783,74.135017 430.706482,76.169312 425.508484,77.878891 
	C423.223572,78.630379 422.402222,79.769371 422.430328,82.173759 
	C422.547089,92.163483 422.562225,102.156479 422.428772,112.145782 
	C422.389374,115.095909 423.409119,115.539307 425.968292,114.707428 
	C433.544861,112.244621 441.194641,110.003853 448.747375,107.472198 
	C452.158569,106.328796 455.263947,105.530296 458.670319,107.680641 
	C460.635101,108.920944 463.190735,108.515991 465.559601,108.434715 
	C465.404541,110.571587 463.570465,109.999985 462.509430,110.335205 
	C449.216858,114.534706 435.894775,118.640938 422.574707,122.753098 
	C420.493866,123.395500 418.422943,123.757561 416.220795,123.040070 
	C402.020691,118.413528 387.800964,113.847275 373.589996,109.253967 
	C372.664642,108.954865 371.645844,108.763962 371.022949,107.177269 
	C377.457275,106.911438 383.386536,104.295631 390.006653,107.228874 
	C396.795441,110.236824 404.224335,111.765991 411.237305,114.315742 
	C415.026764,115.693481 416.428009,115.064575 415.829712,110.926689 
	C415.617462,109.458626 415.795776,107.934067 415.795776,105.942856 
z"/>
<path fill="#F4F4F4" opacity="1.000000" stroke="none" 
	d="
M420.806458,185.610901 
	C425.423309,168.544083 429.928284,151.870285 434.468384,135.206055 
	C436.946228,126.111259 445.461731,120.296806 453.451874,122.181000 
	C462.056763,124.210159 468.071472,133.566910 465.686646,142.710983 
	C459.734894,165.531967 453.477264,188.277496 446.985443,210.951126 
	C444.412964,219.935822 435.915405,224.793564 428.232391,222.605881 
	C419.179260,220.028061 414.017181,210.784866 416.465027,201.389603 
	C417.805908,196.243134 419.289795,191.133911 420.806458,185.610901 
z"/>
<path fill="#F1F1F1" opacity="1.000000" stroke="none" 
	d="
M527.044556,191.026810 
	C524.571960,190.739914 522.043823,192.181503 521.396240,188.322815 
	C520.838074,184.996933 521.202820,183.573441 524.797852,184.130875 
	C527.481445,184.546982 528.557312,183.635941 528.507568,180.672791 
	C528.331543,170.179962 528.352478,159.681213 528.496582,149.187424 
	C528.534851,146.401596 527.785034,145.252518 524.883118,145.511810 
	C522.403870,145.733337 519.881042,145.433670 517.392639,145.596436 
	C515.059448,145.749054 513.952026,145.155136 513.340637,142.584976 
	C512.545227,139.241577 513.499878,138.634415 516.621643,138.714340 
	C520.385193,138.810638 525.276794,140.397766 527.648132,138.025360 
	C530.047119,135.625290 528.377380,130.733063 528.405212,126.940636 
	C528.496826,114.446342 528.246399,101.946228 528.552490,89.458771 
	C528.649414,85.504875 527.363281,84.878334 523.820374,84.943901 
	C511.995850,85.162766 500.156921,84.774994 488.339813,85.142944 
	C483.154938,85.304382 479.710876,84.399536 479.578857,78.134964 
	C494.184875,78.134964 508.926941,77.984818 523.662231,78.234756 
	C527.617432,78.301849 528.941467,77.201920 528.501465,73.310966 
	C528.185181,70.514618 528.376587,67.651634 528.461792,64.821991 
	C528.532410,62.478138 528.491821,59.814621 531.877869,59.843300 
	C535.211304,59.871525 535.221313,62.361595 535.215149,64.817253 
	C535.190491,74.646561 535.204712,84.475967 535.204651,94.305336 
	C535.204651,123.960045 535.204773,153.614761 535.204773,183.269470 
	C535.204773,191.005783 535.204712,191.005783 527.044556,191.026810 
z"/>
<path fill="#F4F4F4" opacity="1.000000" stroke="none" 
	d="
M388.527924,188.324097 
	C390.501740,195.445999 392.210144,202.223328 394.195496,208.918549 
	C396.080231,215.274368 401.959717,217.797455 407.515106,214.866745 
	C408.621704,214.282974 409.980652,212.257721 410.679657,214.965042 
	C411.147644,216.777649 414.292480,218.507385 410.825134,220.779495 
	C402.777527,226.053024 390.857910,221.450882 388.019958,211.478928 
	C382.878204,193.411743 377.997864,175.270142 373.005585,157.160400 
	C371.814026,152.837967 370.559631,148.532135 369.424591,144.194992 
	C366.841003,134.322952 371.782013,124.954071 380.904053,122.324081 
	C389.182800,119.937233 397.612000,125.745865 400.370941,135.717361 
	C404.311981,149.961258 407.911255,164.314102 412.375793,178.392303 
	C414.426025,184.857346 412.660828,190.213730 410.351471,196.888779 
	C405.747864,180.278641 401.398163,164.613922 397.068756,148.943604 
	C395.963318,144.942474 394.914703,140.925583 393.853241,136.912430 
	C392.306000,131.062546 388.053894,127.954857 383.030487,129.017258 
	C377.712250,130.142029 374.243347,135.548019 375.740112,141.271851 
	C379.817749,156.864899 384.151306,172.391006 388.527924,188.324097 
z"/>
<path fill="#F1F1F1" opacity="1.000000" stroke="none" 
	d="
M272.672943,317.248505 
	C274.100525,313.213501 271.346313,314.345825 269.614044,313.971436 
	C267.746338,313.567810 264.412445,315.550446 264.228912,312.773468 
	C263.966919,308.808441 267.884735,310.158234 269.944641,310.375519 
	C273.964630,310.799561 275.346222,309.137085 276.213837,305.452301 
	C278.310364,296.548340 280.856689,287.750031 283.237671,278.913422 
	C284.078613,275.792480 291.225769,273.262115 293.613159,275.306488 
	C294.923065,276.428223 293.780853,277.800507 293.474976,278.962158 
	C291.102600,287.971466 288.773224,296.996490 286.132324,305.928497 
	C285.052338,309.581116 286.012268,310.616547 289.641174,310.303101 
	C292.617096,310.046051 295.633484,310.226013 298.631134,310.268280 
	C299.732178,310.283783 301.146057,310.045593 300.940826,311.925751 
	C300.795837,313.253998 300.141449,314.031372 298.687897,314.023132 
	C294.856995,314.001404 291.021118,314.138245 287.196564,313.982391 
	C284.897766,313.888733 283.631989,314.399353 282.982300,316.908936 
	C279.187225,331.567719 275.086639,346.148254 271.389160,360.830811 
	C270.556824,364.136169 268.773315,368.819580 273.452118,370.448792 
	C277.782227,371.956512 280.253815,368.077087 282.210205,364.730255 
	C284.747833,360.389008 286.090454,355.557465 287.573792,350.791718 
	C287.991455,349.449707 288.022339,347.504639 290.289703,348.160187 
	C292.567139,348.818665 291.517365,350.415833 291.165619,351.816437 
	C289.617859,357.979248 287.602570,363.966980 284.180115,369.366058 
	C280.497375,375.175812 274.473572,377.570282 268.771027,375.656067 
	C263.740051,373.967255 260.936859,368.720001 261.653412,361.695129 
	C263.082489,347.685730 268.411682,334.612549 271.621094,321.027588 
	C271.888763,319.894623 272.232849,318.779724 272.672943,317.248505 
z"/>
<path fill="#F2F2F2" opacity="1.000000" stroke="none" 
	d="
M717.293945,365.220642 
	C710.077087,376.567688 693.913086,378.342010 684.545227,374.022827 
	C676.183228,370.167389 672.171631,360.934753 675.824219,353.916809 
	C677.741577,350.232910 680.664612,348.593658 684.853882,349.892242 
	C687.249695,350.634857 688.299377,352.473419 688.486633,354.761017 
	C688.659302,356.869781 687.986694,358.855103 685.856995,359.693604 
	C683.314575,360.694702 681.467346,361.952484 681.742493,365.082489 
	C682.045349,368.526642 684.541931,369.917877 687.252808,370.797577 
	C692.726929,372.573975 698.374023,373.059875 703.868652,371.022644 
	C712.628662,367.774689 714.472900,357.443848 707.348999,351.365967 
	C703.559326,348.132782 699.597229,345.010773 695.362915,342.408051 
	C685.580750,336.395050 686.363464,322.159698 693.900330,315.090057 
	C704.912781,304.760345 723.067200,307.545563 728.362915,320.523926 
	C731.016968,327.028259 728.051575,333.067780 722.088013,333.280579 
	C719.159912,333.385071 716.808105,332.347229 715.709412,329.491699 
	C714.652771,326.745575 715.967224,324.703186 718.023499,322.953918 
	C721.922424,319.637177 721.681030,316.925171 717.072632,314.551300 
	C711.811157,311.841034 706.467957,312.077087 701.373718,315.042572 
	C697.254150,317.440704 695.574951,321.155426 695.773621,325.945007 
	C695.897400,328.928833 697.232056,330.913483 699.523560,332.573547 
	C703.833740,335.696106 708.089600,338.893768 712.359985,342.071014 
	C721.349854,348.759552 722.703003,354.794495 717.293945,365.220642 
z"/>
<path fill="#F2F2F2" opacity="1.000000" stroke="none" 
	d="
M385.850464,328.239899 
	C388.634369,323.392456 391.093994,318.646240 394.488190,314.511688 
	C397.192169,311.217896 400.309143,308.646942 405.049133,308.940125 
	C409.891693,309.239655 413.150543,311.848938 414.098572,316.617401 
	C415.058502,321.445740 413.003662,326.118713 408.988800,328.043396 
	C406.051788,329.451324 403.151611,329.625122 400.759583,327.001038 
	C398.414703,324.428650 398.624969,321.555084 400.225281,318.683319 
	C400.977722,317.332977 403.261566,315.880096 401.448395,314.526428 
	C399.752930,313.260651 398.161987,315.356781 396.964050,316.654541 
	C394.002777,319.862640 391.921539,323.681152 389.924438,327.518555 
	C383.068604,340.691986 377.430695,354.392334 373.520874,368.705750 
	C372.151794,373.717834 370.065277,376.116455 364.794037,375.050293 
	C363.847626,374.858887 362.829346,375.023102 361.198639,375.023102 
	C364.507935,362.842957 367.743896,351.075378 370.893219,339.284668 
	C372.609528,332.858826 374.756439,326.517578 375.334351,319.841675 
	C375.498291,317.947754 376.242218,315.468964 373.974792,314.453552 
	C371.661499,313.417694 369.831909,315.222046 368.410980,316.800140 
	C363.868744,321.844727 361.514374,328.110291 358.932129,334.250702 
	C358.355286,335.622406 358.816772,338.527283 355.771271,337.321747 
	C353.056244,336.247009 355.122559,334.442566 355.552094,333.227936 
	C357.664734,327.254089 360.282288,321.504456 364.029999,316.330017 
	C365.610748,314.147522 367.426453,312.217438 369.685516,310.753815 
	C376.099091,306.598297 382.056641,308.886627 383.803375,316.278015 
	C384.646118,319.844177 385.104431,323.495117 384.362549,327.611572 
	C384.634888,328.578918 385.040771,328.817932 385.850464,328.239899 
z"/>
<path fill="#EFEFEF" opacity="1.000000" stroke="none" 
	d="
M346.790649,141.999359 
	C346.790588,116.842430 346.790283,92.185509 346.791290,67.528595 
	C346.791351,66.195847 346.748413,64.860161 346.820770,63.531025 
	C346.933807,61.454624 347.866913,59.957802 350.128906,59.954414 
	C352.414978,59.950989 353.374695,61.555229 353.471436,63.556488 
	C353.624115,66.714767 353.538422,69.884232 353.569885,73.048813 
	C353.599060,75.979424 352.586121,79.726662 359.113312,77.660774 
	C356.380859,80.797272 358.475159,84.916756 354.031921,85.588722 
	C353.721558,85.635658 353.588562,87.692299 353.586517,88.814766 
	C353.558411,104.141991 353.552460,119.469315 353.588623,134.796509 
	C353.592926,136.613480 352.864532,139.369446 356.215149,138.734528 
	C361.942749,137.649170 362.767944,140.838547 362.425659,145.300339 
	C353.567322,146.025574 353.567169,146.025574 353.567383,155.345490 
	C353.567535,163.842133 353.675964,172.340897 353.507660,180.834198 
	C353.451569,183.665756 354.290527,184.713974 357.150818,184.482391 
	C359.458008,184.295609 361.806976,184.483063 364.127533,184.645737 
	C366.111115,184.784790 367.068665,186.044724 367.076263,187.986511 
	C367.084259,190.026031 365.915741,191.093582 363.974731,191.128387 
	C359.311890,191.211990 354.639465,191.347595 349.985504,191.138382 
	C346.795013,190.994965 346.763794,188.461411 346.770660,185.982086 
	C346.810852,171.487946 346.790527,156.993637 346.790649,141.999359 
z"/>
<path fill="#F2F2F2" opacity="1.000000" stroke="none" 
	d="
M202.104095,350.065979 
	C203.142715,330.931366 214.979340,314.310120 230.329681,309.750031 
	C233.966370,308.669647 237.640137,308.606079 241.187088,309.235962 
	C250.161438,310.829712 253.515152,321.536438 247.650665,329.842987 
	C242.774902,336.749084 235.342117,339.699280 227.569305,341.919128 
	C225.979401,342.373230 224.330292,342.662903 222.689178,342.887329 
	C214.671295,343.983765 214.634262,343.963165 213.802383,351.789581 
	C213.486359,354.762787 213.147308,357.761658 213.205124,360.741333 
	C213.392044,370.371918 219.521851,374.415955 228.684998,371.255402 
	C234.659409,369.194702 237.834671,364.309174 241.041580,359.450073 
	C242.317596,357.516632 243.275955,355.370819 244.341980,353.302673 
	C244.895554,352.228668 245.675079,351.862946 246.765640,352.410187 
	C247.653641,352.855804 248.256668,353.247742 248.046783,354.637238 
	C246.750000,363.223297 233.350632,375.433197 224.401215,376.000702 
	C212.142456,376.778046 203.497940,368.814362 202.223053,355.521027 
	C202.064545,353.868195 202.120209,352.194824 202.104095,350.065979 
z"/>
<path fill="#F1F1F1" opacity="1.000000" stroke="none" 
	d="
M751.110596,352.581909 
	C750.928467,355.686462 750.684937,358.349487 750.749207,361.005066 
	C750.969910,370.130432 756.770691,374.221344 765.503601,371.507965 
	C772.842285,369.227783 776.292908,363.041595 779.949402,357.082123 
	C780.729919,355.810059 781.313171,354.417297 781.992310,353.082703 
	C782.592773,351.902710 783.478149,352.007904 784.489868,352.500458 
	C785.504150,352.994232 785.777344,353.508484 785.499817,354.800354 
	C783.396973,364.590576 770.425964,375.797882 760.742310,376.020599 
	C750.885071,376.247345 743.947327,371.647064 741.206055,361.648254 
	C736.783813,345.517853 741.394775,331.383087 752.648682,319.419952 
	C758.464966,313.237152 765.361084,308.794739 774.431702,308.929749 
	C779.550659,309.005951 784.324585,309.916046 786.662659,314.891205 
	C789.184204,320.256714 788.402283,325.723602 784.711670,330.407898 
	C778.564270,338.210388 769.769531,341.205902 760.453857,342.833008 
	C752.479187,344.225800 752.446045,344.035980 751.110596,352.581909 
z"/>
<path fill="#F1F1F1" opacity="1.000000" stroke="none" 
	d="
M434.448181,370.902191 
	C441.518097,373.662781 447.197968,371.719910 452.039978,366.889099 
	C455.599762,363.337524 458.201477,359.066467 460.442108,354.570251 
	C461.040497,353.369385 461.223511,351.434448 463.526367,352.415344 
	C465.818298,353.391602 464.662720,354.758636 464.047211,356.025818 
	C459.056702,366.299744 452.589844,374.856537 440.037354,376.010132 
	C431.025787,376.838318 425.146729,372.297699 421.431274,364.569000 
	C412.039642,345.033142 427.367798,313.716522 448.553070,309.317505 
	C451.581573,308.688660 454.940399,308.689972 457.982147,309.266296 
	C466.944305,310.964447 470.151672,321.744904 464.232117,329.961334 
	C459.391785,336.679810 452.135010,339.583069 444.567078,341.868866 
	C443.141754,342.299408 441.654205,342.543060 440.182251,342.796844 
	C431.369843,344.316101 431.172333,344.289154 430.299927,353.054901 
	C429.683716,359.246155 428.214386,365.821838 434.448181,370.902191 
z"/>
<path fill="#F4F4F4" opacity="1.000000" stroke="none" 
	d="
M519.946045,220.465851 
	C516.131470,224.128403 514.012695,223.372589 513.106812,218.277512 
	C510.020325,200.916901 507.026550,183.539841 503.961456,166.175400 
	C501.042389,149.638168 498.118500,133.101547 495.112366,116.579994 
	C494.049713,110.739853 490.763672,107.943367 486.214417,108.655014 
	C481.776733,109.349220 479.410339,113.272903 480.004578,118.999130 
	C480.107422,119.990143 480.351807,120.965919 480.470337,121.955971 
	C480.704987,123.915794 479.802490,125.269905 477.926788,125.631065 
	C476.316101,125.941185 474.824188,125.131264 474.327728,123.590393 
	C472.586182,118.185432 472.075531,112.844772 475.808105,107.898216 
	C479.606018,102.865089 484.713043,100.824471 490.721710,102.168114 
	C496.341583,103.424820 500.182098,107.264069 501.247650,112.973320 
	C504.633331,131.113403 507.789581,149.296722 510.964874,167.475525 
	C514.024841,184.994324 516.998352,202.528244 519.946045,220.465851 
z"/>
<path fill="#F1F1F1" opacity="1.000000" stroke="none" 
	d="
M648.126221,313.132507 
	C643.839417,314.007629 641.530029,316.809235 639.545776,319.962982 
	C636.614319,324.622131 634.242981,329.569885 632.255127,334.694031 
	C631.670532,336.200958 631.182800,337.625244 629.162231,336.894440 
	C627.056152,336.132690 628.323364,334.712250 628.716431,333.628235 
	C631.283203,326.549469 634.489380,319.793945 639.516357,314.088684 
	C642.895142,310.253998 647.162964,307.605713 652.296448,309.315216 
	C657.550781,311.064972 658.981506,315.923553 659.199341,321.000031 
	C659.451965,326.888031 658.485779,332.600586 656.133850,338.044464 
	C653.297791,344.608643 650.438782,351.163239 647.663330,357.752991 
	C646.696838,360.047852 645.738464,362.384521 645.161255,364.794281 
	C644.582947,367.208771 644.083435,370.045776 646.851440,371.479340 
	C649.334473,372.765350 651.416504,370.928619 653.005737,369.347504 
	C657.946716,364.431854 660.499512,358.044067 663.296326,351.821930 
	C663.969910,350.323395 664.156128,347.716980 666.859375,349.078766 
	C669.349060,350.333008 667.158691,352.058380 666.703125,353.261261 
	C664.219604,359.819000 661.103394,366.063995 656.286926,371.295135 
	C652.762878,375.122589 648.366882,377.351257 643.332031,375.642883 
	C638.290283,373.932159 636.964966,369.233826 636.701843,364.316772 
	C636.357849,357.887726 637.676453,351.772766 640.143188,345.850311 
	C643.592468,337.569000 647.779663,329.588531 650.463074,320.998047 
	C651.369934,318.094940 652.019104,315.039886 648.126221,313.132507 
z"/>
<path fill="#F1F1F1" opacity="1.000000" stroke="none" 
	d="
M309.327362,336.631805 
	C306.597900,337.335541 305.489319,336.700287 306.511292,334.008484 
	C309.181427,326.975525 312.275482,320.174683 317.235168,314.411896 
	C320.690247,310.397339 325.027161,307.525909 330.360565,309.341980 
	C335.821655,311.201538 337.105042,316.346039 337.241516,321.567017 
	C337.399872,327.624359 336.201172,333.463623 333.774780,339.051300 
	C330.463318,346.677307 327.082825,354.279236 324.033691,362.010498 
	C322.797760,365.144257 320.894958,369.443481 324.981659,371.356079 
	C328.612000,373.055084 331.302368,369.494995 333.366119,366.694061 
	C336.837708,361.982452 339.247925,356.670502 341.534149,351.306152 
	C342.071381,350.045593 342.137085,348.207184 344.469818,348.913574 
	C347.191284,349.737640 345.452393,351.277100 345.043976,352.396210 
	C342.635559,358.995270 339.538239,365.238586 334.916748,370.609528 
	C331.305267,374.806641 326.756775,377.499512 321.274414,375.608826 
	C316.015015,373.794983 314.851959,368.820190 314.671021,363.751495 
	C314.447968,357.502594 315.706757,351.529266 318.177216,345.792419 
	C321.464355,338.159119 324.872803,330.572357 327.911652,322.840820 
	C329.082581,319.861755 330.878235,315.688751 327.217957,313.788269 
	C323.605530,311.912628 320.880249,315.357483 318.829437,318.174957 
	C314.786865,323.728790 312.050812,329.978821 309.327362,336.631805 
z"/>
<path fill="#F7F7F7" opacity="1.000000" stroke="none" 
	d="
M439.267700,40.046806 
	C433.270355,52.359291 422.508881,57.228943 411.323639,53.017052 
	C401.004944,49.131462 395.113007,36.249718 398.197784,24.319347 
	C401.128204,12.985732 411.163177,6.263377 422.658478,7.933260 
	C434.310181,9.625859 442.883789,22.423698 440.646301,34.849838 
	C440.352814,36.479630 439.809235,38.064384 439.267700,40.046806 
z"/>
<path fill="#F2F2F2" opacity="1.000000" stroke="none" 
	d="
M471.041443,79.765564 
	C474.947235,84.139717 476.207581,92.479492 473.729156,97.133316 
	C471.332611,101.633331 467.046844,102.263832 462.577881,101.724426 
	C458.231812,101.199852 455.205353,98.902969 454.615814,94.235703 
	C454.471313,93.091827 454.463135,91.926598 454.452271,90.770615 
	C454.345856,79.473114 459.759277,75.741859 471.041443,79.765564 
z"/>
<path fill="#F4F4F4" opacity="1.000000" stroke="none" 
	d="
M381.603088,79.509476 
	C385.133484,84.474609 384.338867,89.651344 383.068634,94.561111 
	C381.971710,98.800941 377.374542,100.633347 371.523468,99.956650 
	C367.267639,99.464439 364.498016,97.206612 363.820587,92.849899 
	C363.542969,91.064362 363.496887,89.233238 363.466339,87.420815 
	C363.396454,83.267715 363.992065,79.105499 368.368591,77.463875 
	C372.794189,75.803856 377.448364,75.490181 381.603088,79.509476 
z"/>
<path fill="#F4F4F4" opacity="1.000000" stroke="none" 
	d="
M668.095947,286.113464 
	C665.011841,289.609589 661.444397,289.895599 657.913147,288.171692 
	C654.076904,286.298920 653.004028,282.756165 654.332764,278.852112 
	C655.816711,274.491791 659.447510,273.383636 663.605591,274.084381 
	C667.671509,274.769592 669.444336,277.720398 669.573853,281.563354 
	C669.620911,282.958221 668.759521,284.383759 668.095947,286.113464 
z"/>
<path fill="#F4F4F4" opacity="1.000000" stroke="none" 
	d="
M343.091553,274.446960 
	C347.789886,278.098663 348.799316,281.956818 346.342499,285.750580 
	C344.265442,288.957947 339.688599,290.246185 336.166168,288.400665 
	C332.422699,286.439362 330.984406,283.128540 332.237488,279.172607 
	C333.884491,273.972961 338.070648,273.400940 343.091553,274.446960 
z"/>
<path fill="#E9E9E9" opacity="1.000000" stroke="none" 
	d="
M477.286926,145.590607 
	C475.455963,144.679016 472.371979,147.445801 472.416016,143.776062 
	C472.450989,140.857925 472.726135,137.890182 477.305969,138.675537 
	C480.358032,139.198914 483.633209,139.166183 486.701080,138.689987 
	C492.319550,137.817841 493.636810,140.539001 493.046051,145.590637 
	C487.973724,145.590637 482.861237,145.590637 477.286926,145.590607 
z"/>
<path fill="#E9E9E9" opacity="1.000000" stroke="none" 
	d="
M412.562439,138.786194 
	C416.150208,138.786209 419.321655,138.628906 422.463654,138.864227 
	C423.705261,138.957214 426.399689,137.451950 425.982391,140.425797 
	C425.696167,142.465820 426.304871,145.789627 422.306000,145.612564 
	C418.986572,145.465591 415.654633,145.535263 412.329742,145.594299 
	C408.688110,145.658936 409.283112,142.613037 408.882111,140.635040 
	C408.242615,137.480469 410.974823,139.320663 412.562439,138.786194 
z"/>
<path fill="#EFEFEF" opacity="1.000000" stroke="none" 
	d="
M391.014404,51.972458 
	C387.344269,55.998993 383.760406,54.809349 380.018341,52.572784 
	C382.087463,49.915298 384.623413,47.671921 387.530823,46.198441 
	C389.561279,45.169407 391.684753,41.329456 394.626434,46.193020 
	C397.682281,51.245346 392.353821,49.934723 391.014404,51.972458 
z"/>
<path fill="#EFEFEF" opacity="1.000000" stroke="none" 
	d="
M442.895630,47.690956 
	C443.998962,45.493397 445.092163,44.510735 447.242676,46.100418 
	C449.904327,48.067924 452.721069,49.822254 454.760681,52.528320 
	C449.333801,55.883217 445.938141,55.441395 441.932404,50.871620 
	C440.766144,49.541134 442.469543,48.962105 442.895630,47.690956 
z"/>
<path fill="#656565" opacity="1.000000" stroke="none" 
	d="
M385.632812,328.084412 
	C385.678040,329.373810 385.752563,331.464447 383.711029,330.913147 
	C382.267242,330.523254 384.160187,329.407806 384.122864,328.298737 
	C384.605743,328.066162 384.899048,328.086792 385.632812,328.084412 
z"/>
<path fill="#030303" opacity="1.000000" stroke="none" 
	d="
M144.561554,277.333984 
	C152.266068,275.183868 159.635147,275.174133 166.819031,277.787903 
	C170.340408,279.069122 172.195404,282.117981 173.104630,285.663696 
	C177.641373,303.355835 166.357529,317.946777 148.126328,317.988434 
	C143.146896,317.999817 138.167435,317.990143 132.569183,317.990143 
	C136.712326,304.314026 139.392136,290.657135 144.561554,277.333984 
z"/>
<path fill="#030303" opacity="1.000000" stroke="none" 
	d="
M454.218323,159.199768 
	C449.837067,175.273376 445.580292,190.958252 441.286407,206.632950 
	C439.302826,213.874039 434.784882,217.373108 429.522888,215.840927 
	C423.965240,214.222687 421.446747,208.550461 423.352692,201.514557 
	C428.385864,182.934021 433.493835,164.373734 438.574005,145.805923 
	C439.494476,142.441727 440.247803,139.018845 441.389313,135.731049 
	C443.250153,130.371445 447.397675,127.894272 452.064026,129.046738 
	C457.076508,130.284698 460.196838,134.555573 459.148407,140.028152 
	C457.934753,146.363068 455.967621,152.553635 454.218323,159.199768 
z"/>
<path fill="#050505" opacity="1.000000" stroke="none" 
	d="
M242.349808,316.901184 
	C244.152740,330.751770 230.558319,342.837616 217.855865,339.234253 
	C216.444321,338.833801 216.511002,338.093384 216.733047,337.075836 
	C218.664658,328.223846 222.146042,320.237305 229.922958,314.926544 
	C235.008453,311.453705 239.309052,312.140015 242.349808,316.901184 
z"/>
<path fill="#050505" opacity="1.000000" stroke="none" 
	d="
M766.632812,315.410339 
	C768.414734,314.471405 769.836060,313.503448 771.402039,313.106964 
	C776.974792,311.696167 780.052917,314.095093 780.284851,319.820099 
	C780.701843,330.113647 772.995850,337.765350 760.886292,338.962677 
	C758.771179,339.171783 756.617676,338.992310 754.028015,338.992310 
	C755.417236,329.683777 758.909729,321.664520 766.632812,315.410339 
z"/>
<path fill="#050505" opacity="1.000000" stroke="none" 
	d="
M438.878265,323.006439 
	C441.805847,318.899872 444.706696,315.256897 449.272919,313.531708 
	C455.613037,311.136292 459.415863,313.759369 459.446747,320.466278 
	C459.492493,330.401611 452.156189,337.516449 440.376282,338.961090 
	C432.454407,339.932587 432.494019,339.944031 434.683411,332.369781 
	C435.611908,329.157562 436.806610,326.093353 438.878265,323.006439 
z"/>
<path fill="#050505" opacity="1.000000" stroke="none" 
	d="
M417.430054,47.672058 
	C404.765137,45.603764 399.602783,29.235378 408.228790,19.596308 
	C416.359650,10.510600 429.186279,13.430235 433.108856,25.029539 
	C437.091858,36.807518 429.972809,47.374504 417.430054,47.672058 
z"/>
<path fill="#111111" opacity="1.000000" stroke="none" 
	d="
M467.810760,93.456200 
	C465.777557,95.425529 463.321136,95.869659 461.883698,94.073044 
	C460.201874,91.971001 460.981750,88.964752 461.404510,86.422394 
	C461.731293,84.457047 463.749115,85.088829 465.158112,85.004189 
	C467.319855,84.874344 468.106659,86.038849 468.016876,88.070480 
	C467.943695,89.725571 467.966064,91.384888 467.810760,93.456200 
z"/>
<path fill="#111111" opacity="1.000000" stroke="none" 
	d="
M377.011292,88.105713 
	C377.019135,90.830826 377.563293,93.244904 373.823395,93.245888 
	C370.072418,93.246880 370.062592,91.004509 370.131195,88.337166 
	C370.195679,85.831085 369.784149,83.232056 373.585846,83.122589 
	C377.044983,83.022980 377.206024,85.143456 377.011292,88.105713 
z"/>
</svg>